<?xml version="1.0"?>
<svg xmlns="http://www.w3.org/2000/svg" xmlns:xlink="http://www.w3.org/1999/xlink" xmlns:svgjs="http://svgjs.com/svgjs" version="1.1" width="512" height="512" x="0" y="0" viewBox="0 0 64 64" style="enable-background:new 0 0 512 512" xml:space="preserve" class=""><g><path xmlns="http://www.w3.org/2000/svg" d="m15 2h26v18h-26z" fill="#d8572c" data-original="#bce4f8" class=""/><path xmlns="http://www.w3.org/2000/svg" d="m15 2v16h20a4 4 0 0 0 4-4v-12z" fill="#47c1bf" data-original="#e4f5fd" class=""/><rect xmlns="http://www.w3.org/2000/svg" fill="#ffffff" height="11" rx="3" width="17" x="18" y="5" data-original="#ffffff" class=""/><path xmlns="http://www.w3.org/2000/svg" d="m56 43 6-6v-4a2.965 2.965 0 0 0 -.446-1.554l-5.554 5.554z" fill="#f2f2f2" data-original="#f2f2f2" class=""/><path xmlns="http://www.w3.org/2000/svg" d="m59 30a3 3 0 0 0 -3 3v4l5.554-5.554a2.986 2.986 0 0 0 -2.554-1.446z" fill="#d8572c" data-original="#3079e6" class=""/><path xmlns="http://www.w3.org/2000/svg" d="m59 46a3 3 0 0 0 3-3v-6l-6 6a3 3 0 0 0 3 3z" fill="#d8572c" data-original="#3079e6" class=""/><path xmlns="http://www.w3.org/2000/svg" d="m59 30a3 3 0 0 0 -3 3v4l5.554-5.554a2.986 2.986 0 0 0 -2.554-1.446z" fill="#47c1bf" data-original="#d24034" class=""/><path xmlns="http://www.w3.org/2000/svg" d="m4 28h48v30h-48z" fill="#cccccc" data-original="#cccccc" class=""/><path xmlns="http://www.w3.org/2000/svg" d="m4 28v28h41a4 4 0 0 0 4-4v-24z" fill="#f2f2f2" data-original="#f2f2f2" class=""/><path xmlns="http://www.w3.org/2000/svg" d="m26 36h22v18h-22z" fill="#d8572c" data-original="#bce4f8" class=""/><path xmlns="http://www.w3.org/2000/svg" d="m26 36v11h17a2 2 0 0 0 2-2v-9z" fill="#47c1bf" data-original="#e4f5fd" class=""/><path xmlns="http://www.w3.org/2000/svg" d="m2 58h53v4h-53z" fill="#47c1bf" data-original="#aa2b24" class=""/><path xmlns="http://www.w3.org/2000/svg" d="m2 24h52v4h-52z" fill="#47c1bf" data-original="#aa2b24" class=""/><path xmlns="http://www.w3.org/2000/svg" d="m8 36h14v22h-14z" fill="#d8572c" data-original="#bce4f8" class=""/><path xmlns="http://www.w3.org/2000/svg" d="m12 40h6v10h-6z" fill="#47c1bf" data-original="#e4f5fd" class=""/><path xmlns="http://www.w3.org/2000/svg" d="m8 54h14v4h-14z" fill="#47c1bf" data-original="#aa2b24" class=""/><g xmlns="http://www.w3.org/2000/svg" fill="#d24034"><path d="m2 26h48a2 2 0 0 0 2-2h-50z" fill="#47c1bf" data-original="#d24034" class=""/><path d="m2 58v2h47a2.99 2.99 0 0 0 2.816-2z" fill="#47c1bf" data-original="#d24034" class=""/><path d="m8 56h10a2 2 0 0 0 2-2h-12z" fill="#47c1bf" data-original="#d24034" class=""/></g><path xmlns="http://www.w3.org/2000/svg" d="m59 29a4 4 0 0 0 -4 4h-2v-4h1a1 1 0 0 0 1-1v-4a1 1 0 0 0 -1-1h-16v-2h3a1 1 0 0 0 1-1v-18a1 1 0 0 0 -1-1h-26a1 1 0 0 0 -1 1v18a1 1 0 0 0 1 1h3v2h-16a1 1 0 0 0 -1 1v4a1 1 0 0 0 1 1h1v28h-1a1 1 0 0 0 -1 1v4a1 1 0 0 0 1 1h53a1 1 0 0 0 1-1v-4a1 1 0 0 0 -1-1h-2v-14h2a4 4 0 0 0 8 0v-10a4 4 0 0 0 -4-4zm-2 8.414 4-4v3.172l-4 4zm2-6.414a1.985 1.985 0 0 1 1.187.4l-3.187 3.186v-1.586a2 2 0 0 1 2-2zm-43-28h24v16h-24zm4 18h16v2h-16zm-17 4h50v2h-50zm48 4v2h-46v-2zm3 32h-51v-2h51zm-33-8h-12v-16h12zm-12 2h12v2h-12zm14 2v-21a1 1 0 0 0 -1-1h-14a1 1 0 0 0 -1 1v21h-2v-24h46v24zm30-16v-6h2v6zm6 4a2 2 0 0 1 -1.962-1.624l3.962-3.962v3.586a2 2 0 0 1 -2 2z" fill="#000000" data-original="#000000" class=""/><path xmlns="http://www.w3.org/2000/svg" d="m35.526 5.119-8.56 4.61-1.7-.785a2.974 2.974 0 0 0 .734-1.944 3 3 0 1 0 -3.282 2.971l2.045.944-2.074 1.116a3 3 0 1 0 2.5.928l1.848-.995 8.547 3.944.838-1.816-7.182-3.315 7.237-3.9zm-13.526 1.881a1 1 0 1 1 1 1 1 1 0 0 1 -1-1zm1 9a1 1 0 1 1 1-1 1 1 0 0 1 -1 1z" fill="#000000" data-original="#000000" class=""/><path xmlns="http://www.w3.org/2000/svg" d="m12 51h6a1 1 0 0 0 1-1v-10a1 1 0 0 0 -1-1h-6a1 1 0 0 0 -1 1v10a1 1 0 0 0 1 1zm1-10h4v8h-4z" fill="#000000" data-original="#000000" class=""/><path xmlns="http://www.w3.org/2000/svg" d="m48 35h-22a1 1 0 0 0 -1 1v18a1 1 0 0 0 1 1h22a1 1 0 0 0 1-1v-18a1 1 0 0 0 -1-1zm-1 14h-20v-6.586l5.414-5.414h3.172l-3.293 3.293 1.414 1.414 4.707-4.707h8.586zm-17.414-12-2.586 2.586v-2.586zm-2.586 16v-2h20v2z" fill="#000000" data-original="#000000" class=""/><path xmlns="http://www.w3.org/2000/svg" d="m29.586 42h2.828v2h-2.828z" transform="matrix(.707 -.707 .707 .707 -21.326 34.515)" fill="#000000" data-original="#000000" class=""/></g></svg>
