<?xml version="1.0"?>
<svg xmlns="http://www.w3.org/2000/svg" xmlns:xlink="http://www.w3.org/1999/xlink" xmlns:svgjs="http://svgjs.com/svgjs" version="1.1" width="512" height="512" x="0" y="0" viewBox="0 0 512 512" style="enable-background:new 0 0 512 512" xml:space="preserve" class=""><g><g xmlns="http://www.w3.org/2000/svg"><path d="m456.832 32.133h-401.666c-30.419 0-55.166 24.748-55.166 55.167v56.233c0 8.284 6.716 15 15 15h482c8.284 0 15-6.716 15-15v-56.233c0-30.419-24.748-55.167-55.168-55.167z" fill="#d8572c" data-original="#ff5b5b" class=""/><path d="m456.832 32.133h-200.832v126.4h241c8.284 0 15-6.716 15-15v-56.233c0-30.419-24.748-55.167-55.168-55.167z" fill="#d8572c" data-original="#ff0059" class=""/><g><g><g><path d="m207.799 94.267c-8.284 0-15-6.716-15-15v-64.267c0-8.284 6.716-15 15-15s15 6.716 15 15v64.267c0 8.284-6.716 15-15 15z" fill="#ededed" data-original="#c5e1e6" class=""/></g></g></g><g><g><g><path d="m111.4 94.267c-8.284 0-15-6.716-15-15v-64.267c0-8.284 6.716-15 15-15s15 6.716 15 15v64.267c0 8.284-6.715 15-15 15z" fill="#ededed" data-original="#c5e1e6" class=""/></g></g></g><g><g><g><path d="m400.6 94.267c-8.284 0-15-6.716-15-15v-64.267c0-8.284 6.716-15 15-15s15 6.716 15 15v64.267c0 8.284-6.716 15-15 15z" fill="#ededed" data-original="#8db9c4" class=""/></g></g></g><g><g><g><path d="m304.199 94.267c-8.284 0-15-6.716-15-15v-64.267c0-8.284 6.716-15 15-15s15 6.716 15 15v64.267c0 8.284-6.716 15-15 15z" fill="#ededed" data-original="#8db9c4" class=""/></g></g></g><g><g><path d="m0 143.533v313.3c0 30.419 24.747 55.167 55.166 55.167h401.666c30.42 0 55.168-24.748 55.168-55.167v-313.3z" fill="#ededed" data-original="#e7f0ef" class=""/><g><path d="m256 512h200.832c30.42 0 55.168-24.748 55.168-55.167v-313.3h-256z" fill="#ededed" data-original="#c5e1e6" class=""/></g></g><g><g><g><path d="m151.566 303.133h-64.267c-8.284 0-15-6.716-15-15v-64.266c0-8.284 6.716-15 15-15h64.268c8.284 0 15 6.716 15 15v64.266c-.001 8.284-6.716 15-15.001 15zm-49.267-30h34.268v-34.266h-34.268z" fill="#265c76" data-original="#265c76" class=""/></g></g></g><g><g><g><path d="m424.699 303.133h-64.266c-8.284 0-15-6.716-15-15v-64.266c0-8.284 6.716-15 15-15h64.266c8.284 0 15 6.716 15 15v64.266c0 8.284-6.716 15-15 15zm-49.265-30h34.266v-34.266h-34.266z" fill="#265c76" data-original="#1d4659" class=""/></g></g></g><g><g><g><path d="m151.566 431.666h-64.267c-8.284 0-15-6.716-15-15v-64.266c0-8.284 6.716-15 15-15h64.268c8.284 0 15 6.716 15 15v64.266c-.001 8.284-6.716 15-15.001 15zm-49.267-30h34.268v-34.266h-34.268z" fill="#265c76" data-original="#265c76" class=""/></g></g></g><g><g><g><path d="m424.699 431.666h-64.266c-8.284 0-15-6.716-15-15v-64.266c0-8.284 6.716-15 15-15h64.266c8.284 0 15 6.716 15 15v64.266c0 8.284-6.716 15-15 15zm-49.265-30h34.266v-34.266h-34.266z" fill="#265c76" data-original="#1d4659" class=""/></g></g></g><g><g><g><path d="m288.133 431.666h-64.268c-8.284 0-15-6.716-15-15v-64.266c0-8.284 6.716-15 15-15h64.268c8.284 0 15 6.716 15 15v64.266c0 8.284-6.716 15-15 15zm-49.268-30h34.268v-34.266h-34.268z" fill="#265c76" data-original="#265c76" class=""/></g></g></g><g><g><g><g><path d="m244.641 293.723c-3.979 0-7.794-1.58-10.606-4.394l-22.723-22.723c-5.858-5.857-5.858-15.355 0-21.213 5.857-5.857 15.355-5.857 21.213 0l12.116 12.115 34.835-34.836c5.857-5.857 15.355-5.859 21.213 0 5.858 5.857 5.858 15.354 0 21.213l-45.441 45.443c-2.813 2.815-6.629 4.395-10.607 4.395z" fill="#47c1bf" data-original="#54e360" class=""/></g></g></g></g></g><path d="m288.133 337.4h-32.133v30h17.133v34.266h-17.133v30h32.133c8.284 0 15-6.716 15-15v-64.266c0-8.284-6.716-15-15-15z" fill="#265c76" data-original="#1d4659" class=""/><path d="m300.688 222.673c-5.857-5.859-15.355-5.857-21.213 0l-23.475 23.476v42.427l44.688-44.69c5.859-5.859 5.859-15.356 0-21.213z" fill="#47c1bf" data-original="#00b44b" class=""/></g></g></svg>
