<?xml version="1.0"?>
<svg xmlns="http://www.w3.org/2000/svg" xmlns:xlink="http://www.w3.org/1999/xlink" xmlns:svgjs="http://svgjs.com/svgjs" version="1.1" width="512" height="512" x="0" y="0" viewBox="0 0 512 512" style="enable-background:new 0 0 512 512" xml:space="preserve" class=""><g>
<g xmlns="http://www.w3.org/2000/svg" id="surface1">
<path d="M 156.589844 467.683594 L 156.589844 502 L 448 502 L 448 341.351562 L 378.921875 341.351562 L 278.414062 419.015625 Z M 156.589844 467.683594 " style=" stroke:none;fill-rule:nonzero;fill-opacity:1;" fill="#d8572c" data-original="#ffb954" class=""/>
<path d="M 411.75 302 L 411.75 205.972656 C 411.75 183.171875 401.644531 161.730469 384.464844 147.230469 L 347.78125 176.742188 C 359.257812 185.449219 366 199.03125 366 213.4375 L 366 302 Z M 411.75 302 " style=" stroke:none;fill-rule:nonzero;fill-opacity:1;" fill="#6a80ff" data-original="#6a80ff" class=""/>
<path d="M 59.441406 340.699219 L 104.664062 310.003906 C 110.746094 305.875 117.929688 303.664062 125.285156 303.664062 C 145.5625 303.664062 162 320.105469 162 340.382812 L 162 409.125 L 114 428.332031 L 114 363.5 L 63.335938 393.808594 C 60.027344 395.789062 58 399.359375 58 403.21875 L 58 502 L 38.332031 502 L 38.332031 340.699219 Z M 59.441406 340.699219 " style=" stroke:none;fill-rule:nonzero;fill-opacity:1;" fill="#6a80ff" data-original="#6a80ff" class=""/>
<path d="M 185.761719 189.121094 L 78.410156 227.433594 C 64.074219 232.550781 54.5 246.128906 54.5 261.355469 L 54.5 340.699219 L 65.316406 340.699219 C 65.316406 327.066406 76.367188 316.015625 90 316.015625 L 90 262.332031 L 178.117188 201.777344 C 182.523438 198.75 185.171875 194.078125 185.761719 189.121094 Z M 185.761719 189.121094 " style=" stroke:none;fill-rule:nonzero;fill-opacity:1;" fill="#47c1bf" data-original="#a0e557" class=""/>
<path d="M 286.675781 117.242188 L 194.175781 186.933594 C 198.035156 188.132812 202.304688 188.046875 206.285156 186.417969 L 303.296875 146.691406 L 347.78125 176.742188 L 387.792969 144.558594 L 345.121094 115.734375 C 327.316406 103.703125 303.835938 104.308594 286.675781 117.242188 Z M 286.675781 117.242188 " style=" stroke:none;fill-rule:nonzero;fill-opacity:1;" fill="#47c1bf" data-original="#72d8ff" class=""/>
<path d="M 65.453125 125.546875 C 52.683594 131.40625 43.808594 144.296875 43.808594 159.269531 L 43.808594 165.660156 C 43.808594 180.632812 52.683594 193.523438 65.453125 199.382812 C 78.222656 193.523438 87.09375 180.632812 87.09375 165.660156 L 87.09375 159.269531 C 87.09375 144.296875 78.222656 131.40625 65.453125 125.546875 Z M 65.453125 125.546875 " style=" stroke:none;fill-rule:nonzero;fill-opacity:1;" fill="#fcc69d" data-original="#fcc69d" class=""/>
<path d="M 273.039062 87.394531 C 280.480469 73.375 278.296875 55.589844 266.492188 43.785156 L 261.96875 39.261719 C 252.214844 29.507812 238.382812 26.332031 225.960938 29.714844 C 218.519531 43.734375 220.703125 61.519531 232.507812 73.324219 L 237.03125 77.847656 C 246.785156 87.601562 260.617188 90.777344 273.039062 87.394531 Z M 273.039062 87.394531 " style=" stroke:none;fill-rule:nonzero;fill-opacity:1;" fill="#fcc69d" data-original="#fcc69d" class=""/>
<path d="M 10 421 C 12.628906 421 15.210938 419.929688 17.070312 418.070312 C 18.929688 416.210938 20 413.628906 20 411 C 20 408.371094 18.929688 405.789062 17.070312 403.929688 C 15.210938 402.070312 12.628906 401 10 401 C 7.371094 401 4.789062 402.070312 2.929688 403.929688 C 1.070312 405.789062 0 408.371094 0 411 C 0 413.628906 1.070312 416.210938 2.929688 418.070312 C 4.789062 419.929688 7.371094 421 10 421 Z M 10 421 " style=" stroke:none;fill-rule:nonzero;fill-opacity:1;" fill="#000000" data-original="#000000" class=""/>
<path d="M 418.628906 115.988281 C 418.621094 115.984375 418.617188 115.980469 418.613281 115.976562 L 351.949219 70.945312 C 339.164062 62.3125 323.941406 59.117188 309.363281 61.265625 C 310.015625 58.125 310.355469 54.898438 310.355469 51.613281 C 310.355469 39.035156 305.457031 27.210938 296.5625 18.3125 L 292.039062 13.792969 C 283.144531 4.898438 271.320312 0 258.738281 0 C 246.160156 0 234.335938 4.898438 225.4375 13.792969 C 216.542969 22.691406 211.644531 34.515625 211.644531 47.097656 C 211.644531 59.675781 216.542969 71.5 225.4375 80.394531 L 229.960938 84.917969 C 235.625 90.582031 242.480469 94.617188 249.960938 96.808594 L 182.675781 147.503906 C 178.394531 150.726562 175.285156 154.964844 173.457031 159.648438 C 168.617188 158.667969 163.484375 158.941406 158.574219 160.695312 L 93.398438 183.957031 C 95.777344 178.328125 97.09375 172.148438 97.09375 165.664062 L 97.09375 159.269531 C 97.09375 133.300781 75.96875 112.175781 50 112.175781 C 24.03125 112.175781 2.90625 133.300781 2.90625 159.269531 L 2.90625 165.664062 C 2.90625 183.730469 13.140625 199.449219 28.109375 207.34375 C 11.195312 214.492188 0 231.199219 0 249.722656 L 0 369 C 0 374.523438 4.476562 379 10 379 C 15.523438 379 20 374.523438 20 369 L 20 350.699219 L 59.441406 350.699219 C 61.523438 350.699219 63.457031 350.0625 65.058594 348.972656 L 110.277344 318.277344 C 114.722656 315.261719 119.910156 313.667969 125.28125 313.667969 C 140.015625 313.667969 152 325.652344 152 340.382812 L 152 402.355469 L 124 413.5625 L 124 363.5 C 124 359.898438 122.0625 356.578125 118.933594 354.800781 C 115.800781 353.027344 111.957031 353.070312 108.867188 354.917969 L 58.199219 385.226562 C 51.90625 388.992188 48 395.886719 48 403.21875 L 48 492 L 20 492 L 20 450.019531 C 20 444.496094 15.523438 440.019531 10 440.019531 C 4.476562 440.019531 0 444.496094 0 450.019531 L 0 502 C 0 507.523438 4.476562 512 10 512 L 58 512 C 63.523438 512 68 507.523438 68 502 L 68 403.21875 C 68 402.878906 68.179688 402.5625 68.46875 402.390625 L 104 381.136719 L 104 502 C 104 507.523438 108.476562 512 114 512 L 448 512 C 453.523438 512 458 507.523438 458 502 L 458 188.722656 C 458 159.261719 443.285156 132.089844 418.628906 115.988281 Z M 438 188.722656 L 438 292 L 418 292 L 418 213.132812 C 418 207.609375 413.523438 203.132812 408 203.132812 C 402.476562 203.132812 398 207.609375 398 213.132812 L 398 292 L 376 292 L 376 213.4375 C 376 200.226562 371.230469 187.441406 362.875 177.433594 L 413.328125 136.847656 C 428.890625 149.476562 438 168.390625 438 188.722656 Z M 239.582031 66.253906 C 234.464844 61.136719 231.644531 54.332031 231.644531 47.097656 C 231.644531 39.859375 234.464844 33.054688 239.582031 27.9375 C 244.699219 22.816406 251.503906 20 258.738281 20 C 265.976562 20 272.78125 22.816406 277.898438 27.9375 L 282.421875 32.457031 C 292.984375 43.019531 292.984375 60.210938 282.421875 70.777344 C 271.855469 81.339844 254.664062 81.339844 244.101562 70.777344 Z M 194.710938 163.476562 L 293.921875 88.726562 C 307.667969 78.371094 326.488281 77.886719 340.753906 87.519531 L 396.191406 124.964844 L 347.265625 164.324219 L 308.894531 138.402344 C 306.125 136.53125 302.601562 136.167969 299.507812 137.4375 L 202.496094 177.160156 C 198.894531 178.632812 194.6875 177.234375 192.6875 173.898438 C 192.679688 173.882812 192.671875 173.867188 192.660156 173.851562 C 190.597656 170.371094 191.480469 165.910156 194.710938 163.476562 Z M 22.90625 159.269531 C 22.90625 144.328125 35.058594 132.175781 50 132.175781 C 64.941406 132.175781 77.09375 144.328125 77.09375 159.269531 L 77.09375 165.664062 C 77.09375 180.601562 64.941406 192.757812 50 192.757812 C 35.058594 192.757812 22.90625 180.605469 22.90625 165.664062 Z M 20 249.722656 C 20 238.753906 26.941406 228.90625 37.273438 225.21875 L 165.296875 179.53125 C 168.863281 178.261719 172.855469 179.699219 174.785156 182.957031 C 176.90625 186.535156 175.882812 191.183594 172.453125 193.535156 L 84.335938 254.09375 C 81.621094 255.957031 80 259.039062 80 262.332031 L 80 314.660156 L 56.371094 330.699219 L 20 330.699219 Z M 125.285156 293.667969 C 116.273438 293.667969 107.558594 296.242188 100 301.109375 L 100 267.59375 L 183.78125 210.019531 C 188.550781 206.742188 191.988281 202.207031 193.953125 197.140625 C 195.808594 197.523438 197.703125 197.726562 199.609375 197.726562 C 203.125 197.726562 206.679688 197.0625 210.078125 195.667969 L 302.136719 157.972656 L 341.871094 184.8125 C 350.71875 191.597656 356 202.28125 356 213.4375 L 356 292 L 336.335938 292 C 334.121094 292 331.972656 292.734375 330.21875 294.085938 L 230.816406 370.898438 L 172 394.394531 L 172 340.382812 C 172 314.621094 151.042969 293.667969 125.285156 293.667969 Z M 438 492 L 124 492 L 124 435.105469 L 239.535156 388.953125 C 240.394531 388.609375 241.203125 388.148438 241.9375 387.578125 L 339.746094 312 L 438 312 Z M 438 492 " style=" stroke:none;fill-rule:nonzero;fill-opacity:1;" fill="#000000" data-original="#000000" class=""/>
<path d="M 376.667969 372.332031 L 390 372.332031 L 390 411 C 390 416.523438 394.476562 421 400 421 C 405.523438 421 410 416.523438 410 411 L 410 362.332031 C 410 356.8125 405.523438 352.332031 400 352.332031 L 376.667969 352.332031 C 371.144531 352.332031 366.667969 356.8125 366.667969 362.332031 C 366.667969 367.855469 371.144531 372.332031 376.667969 372.332031 Z M 376.667969 372.332031 " style=" stroke:none;fill-rule:nonzero;fill-opacity:1;" fill="#000000" data-original="#000000" class=""/>
<path d="M 400 440.019531 C 397.371094 440.019531 394.789062 441.089844 392.929688 442.949219 C 391.070312 444.808594 390 447.390625 390 450.019531 C 390 452.648438 391.070312 455.230469 392.929688 457.089844 C 394.789062 458.949219 397.371094 460.019531 400 460.019531 C 402.628906 460.019531 405.210938 458.949219 407.070312 457.089844 C 408.929688 455.230469 410 452.648438 410 450.019531 C 410 447.390625 408.929688 444.808594 407.070312 442.949219 C 405.210938 441.089844 402.628906 440.019531 400 440.019531 Z M 400 440.019531 " style=" stroke:none;fill-rule:nonzero;fill-opacity:1;" fill="#000000" data-original="#000000" class=""/>
</g>
</g></svg>
