<svg version="1.2"  fill="#000" xmlns="http://www.w3.org/2000/svg" viewBox="0 0 1024 1024" width="512" height="512">
		<path d="m819.88 624.38c42.75-23.79 55.55-43.56 80.02-86.8c13.63-23.78 22.6-48.5 27.2-74.09c4.6-25.58 4.85-51.95 0.78-79.01c-4.12-27.16-12.49-54.01-25.25-80.36c-9.81-20.22-21.82-38.6-36.2-55.11c-14.21-16.56-30.05-30.56-47.55-42.06c-17.28-11.53-36.29-19.77-56.66-24.94c-20.44-5.25-41.81-6.58-64.02-4.1c-22.35 2.58-45.12 9.34-68.51 20.3c-23.35 10.99-46.91 27.08-70.65 48.28c-18.31 16.36-33.37 33.12-45.04 50.5c-11.68 17.35-20.63 34.84-26.9 52.44c-6.46 17.63-10.45 35.34-12.29 53.43c-1.89 17.97-2.09 35.76-0.61 53.39c1.53 17.71 4.04 35.23 7.98 52.41c3.7 17.23 8.08 34.02 13.01 50.58l14.52 47.24c7.19 23.47 13.07 45.18 17.84 64.56c4.62 19.59 7.53 37.84 8.53 54.96c1.37 28.82-3.6 55.42-14.93 79.83c-11.52 24.54-30.63 48.84-57.75 73.05c-26.2 23.37-51.42 39.64-75.34 48.59c-24.14 8.97-46.71 12.03-67.58 9.05c-20.85-2.98-39.61-11.61-56.33-25.64c-16.69-13.92-30.6-32.61-41.81-55.7c-12.15-25.08-20.07-49.63-23.72-73.58c-3.68-23.95-5.24-45.38-4.68-64.31c0.53-18.89 2.12-34.33 4.57-46.11c2.46-11.81 3.68-18.22 4.12-19.29c17.87-43.19 27.18 27.98 26.76 44.29c-0.45 17.76 1.12 37.85 4.52 60.31c3.54 22.32 10.98 45.43 22.46 69.11c11.37 23.48 24.66 41.36 39.69 53.7c15.05 12.34 31.19 19.68 48.38 21.93c17.37 2.14 35.09-0.48 53.27-7.62c18.25-7.36 36.29-18.92 54.01-34.75c10.48-9.34 19.01-18.59 25.59-27.78c6.64-9.11 11.71-18.19 15.33-27.16c3.6-8.94 6.08-17.97 7.22-26.99c1.34-9.08 1.62-18.02 1.2-27.1c-0.42-9.5-1.36-19.2-3.04-29.04c-1.83-9.7-3.95-19.57-6.49-29.33c-2.47-9.67-5.35-19.23-8.22-28.81c-2.85-9.48-5.66-18.98-8.39-28.26l-14.52-47.27c-11.57-37.06-18.62-72.12-21.04-105.32c-2.57-33.1-0.17-64.59 6.66-94.19c7.06-29.64 18.96-57.89 35.65-84.53c16.81-26.76 39.02-52.47 66.76-77.21c28.35-25.34 56.08-44.62 83.56-58.07c27.31-13.29 53.71-21.67 79.13-25.27c25.44-3.49 49.53-2.56 72.22 2.81c22.71 5.46 43.53 14.26 62.82 26.27c19.12 12.14 36.43 26.88 51.65 44.65c15.19 17.66 28.03 36.89 38.29 58.03c12.76 26.37 21.16 51.85 25.39 76.09c4.26 24.23 5.54 46.98 4.01 68.38c-1.45 21.17-5.29 41.02-11.59 59.44c-6.19 18.22-13.01 34.61-20.68 49.31c-55.91 105.41-180.75 134.4-113.3 96.89z" />
		<path d="m112.88 609.9c-7.31-5.5-13.61-11.98-18.9-19.12c-13.63-18.47-20.43-41.5-20.43-64.33c0-22.86 6.8-45.89 20.43-64.36c5.3-7.14 11.59-13.61 18.9-19.12c19.54-14.68 39.68-28.34 59.83-41.98c38.8-26.29 77.6-52.58 111.02-86.26c31.58-31.86 58.22-71.65 84.9-111.43c13.49-20.16 27.01-40.34 42.12-60.79c5.44-7.37 11.82-13.7 18.89-19.04l-0.03-0.03c18.29-13.75 41.14-20.64 63.86-20.64c22.63 0 45.49 6.89 63.77 20.64c7.08 5.32 13.46 11.64 18.92 19.01l0.03-0.03c14.55 19.71 28.35 40.29 42.15 60.87c26.61 39.75 53.26 79.54 85.15 111.71c31.55 31.85 70.96 58.68 110.34 85.53c19.99 13.61 39.94 27.22 60.21 42.43c7.33 5.51 13.66 11.98 18.92 19.15c13.57 18.39 20.37 41.42 20.37 64.33h0.09c0 22.82-6.83 45.86-20.46 64.3c-5.27 7.17-11.59 13.64-18.92 19.14c-19.91 14.94-40.73 29.38-61.57 43.81c-40.81 28.29-81.64 56.58-108.98 84.16c-31.75 32.02-58.42 71.84-85.1 111.62c-13.82 20.64-27.65 41.25-42.2 60.96l-0.03-0.03c-5.46 7.34-11.85 13.7-18.92 19.01c-18.28 13.75-41.11 20.64-63.77 20.64c-22.72 0-45.57-6.89-63.89-20.64c-6.96-5.26-13.32-11.58-18.84-19.06c-15.13-20.47-28.62-40.6-42.12-60.76c-26.61-39.75-53.23-79.49-84.98-111.54c-31.57-31.86-71.05-58.76-110.48-85.64c-19.98-13.64-40-27.27-60.28-42.52zm83.39 7.96c41.2 28.05 82.39 56.15 116.62 90.67c34.42 34.76 62.21 76.26 90 117.76c13.72 20.47 27.43 40.94 40.97 59.3c2.9 3.91 6.44 7.39 10.45 10.4c10.93 8.24 24.97 12.34 39.17 12.34c14.21 0 28.28-4.1 39.22-12.34c3.9-2.92 7.41-6.4 10.37-10.4v-0.09c14.16-19.15 27.62-39.25 41.08-59.32c27.84-41.55 55.68-83.12 90.08-117.81c29.74-29.97 72.35-59.53 114.97-89.05c20.88-14.48 41.78-28.94 60.29-42.85c3.99-3.01 7.44-6.55 10.37-10.49c8.11-11.02 12.18-25.19 12.18-39.53h0.09c0-14.29-4.1-28.46-12.27-39.57c-2.93-3.93-6.38-7.5-10.37-10.49c-18.14-13.63-38.47-27.47-58.75-41.3c-41.14-28.03-82.25-56.07-116.48-90.6c-34.56-34.84-62.38-76.36-90.17-117.86c-13.44-20.08-26.87-40.12-41.03-59.27v-0.09c-2.95-3.99-6.47-7.48-10.37-10.43c-10.93-8.21-25-12.32-39.22-12.32c-14.19 0-28.23 4.13-39.14 12.34h-0.09c-3.9 2.92-7.41 6.41-10.4 10.4c-13.51 18.33-27.26 38.83-40.97 59.33c-27.84 41.53-55.68 83.09-89.88 117.62c-35.79 36.1-76.57 63.72-117.32 91.33c-19.65 13.29-39.27 26.6-58.22 40.85c-3.99 2.99-7.44 6.53-10.34 10.49c-8.14 11-12.21 25.19-12.21 39.57c0 14.34 4.07 28.53 12.21 39.53c2.9 3.96 6.35 7.51 10.34 10.49c18.17 13.66 38.49 27.52 58.81 41.39z" />
		<path d="m113.52 464.34c135.08 0 261.41 23.05 387.72 46.08c121.45 22.16 242.93 44.31 369.38 44.31v34.84c-135.11 0-261.41-23.05-387.72-46.08c-121.45-22.16-242.94-44.31-369.38-44.31v-34.84z" />
		<path d="m698.19 177.91c-22.11 4.3-45.12 9.34-68.51 20.3c-23.35 10.99-46.91 27.08-70.65 48.28c-18.31 16.36-33.37 33.12-45.04 50.5c-11.68 17.35-20.63 34.84-26.9 52.44c-6.46 17.63-10.45 35.34-12.29 53.43c-1.89 17.97-2.09 35.76-0.61 53.39c1.53 17.71 4.04 35.23 7.98 52.41c3.7 17.23 8.08 34.02 13.01 50.58l14.52 47.24c7.19 23.47 13.07 45.18 17.84 64.56c4.62 19.59 7.53 37.84 8.53 54.96c1.45 34.5-21.18 54.19-35.03 23.82c-0.42-9.5-1.36-19.2-3.04-29.04c-1.83-9.7-3.95-19.57-6.49-29.33c-2.47-9.67-5.35-19.23-8.22-28.81c-2.85-9.48-5.66-18.98-8.39-28.26l-14.52-47.27c-11.57-37.06-18.62-72.12-21.04-105.32c-2.57-33.1-0.17-64.59 6.66-94.19c7.06-29.64 18.96-57.89 35.65-84.53c16.81-26.76 39.02-52.47 66.76-77.21c28.35-25.34 56.08-44.62 83.56-58.07c27.31-13.29 56.08-13.88 79.13-25.27c7.08-3.49 20.46 28.9-12.88 35.4v0z" />
</svg>
