<?xml version="1.0"?>
<svg xmlns="http://www.w3.org/2000/svg" fill="#000" xmlns:xlink="http://www.w3.org/1999/xlink" xmlns:svgjs="http://svgjs.com/svgjs" version="1.1" width="512" height="512" x="0" y="0" viewBox="0 0 511.554 511.554" style="enable-background:new 0 0 512 512" xml:space="preserve" class=""><g><g xmlns="http://www.w3.org/2000/svg"><g><g fill="#b3e59f"><path d="m449.848 164.035-.404-2.114c-1.426-7.454 3.163-14.74 10.502-16.673l22.575-5.947c8.086-2.13 16.285 3.034 17.856 11.247l1.005 5.252c1.572 8.213-4.141 16.039-12.442 17.045l-23.175 2.808c-7.536.913-14.491-4.163-15.917-11.618z" fill="#47c1bf" data-original="#b3e59f" class=""/><path d="m419.185 99.421-1.407-1.628c-4.962-5.742-4.631-14.347.758-19.69l16.577-16.437c5.938-5.888 15.62-5.515 21.087.812l3.496 4.046c5.467 6.327 4.433 15.961-2.253 20.982l-18.666 14.02c-6.068 4.557-14.63 3.638-19.592-2.105z" fill="#47c1bf" data-original="#b3e59f" class=""/><path d="m360.323 58.796-2.033-.707c-7.169-2.492-11.184-10.109-9.189-17.431l6.137-22.524c2.198-8.068 10.77-12.586 18.668-9.841l5.051 1.756c7.898 2.745 11.819 11.606 8.54 19.298l-9.156 21.474c-2.976 6.982-10.85 10.466-18.018 7.975z" fill="#47c1bf" data-original="#b3e59f" class=""/></g><path d="m382.878 165.417c-111.323-8.775-222.646-8.775-333.97 0-16.621 1.31-29.9 14.307-31.697 30.882-9.771 90.106-9.771 180.211 0 270.317 1.797 16.575 15.076 29.572 31.697 30.882 111.323 8.775 222.646 8.775 333.97 0 16.621-1.31 29.9-14.307 31.697-30.882 9.771-90.106 9.771-180.211 0-270.317-1.797-16.576-15.076-29.572-31.697-30.882z" fill="#cc842c" data-original="#f9f6f6" class=""/><path d="m56.161 498.045c-2.426-.177-4.833-.353-7.25-.548-16.619-1.311-29.902-14.305-31.696-30.887-9.769-90.095-9.769-180.209 0-270.313-1.208 13.756 5.856 32.197 18.553 52.386-4.759 74.489-3.095 148.969 4.982 223.467 1.171 10.773 6.99 20.086 15.411 25.895z" fill="#d8572c" data-original="#e7ecf6" class=""/><path d="m414.571 196.297c2.036 23.246-19.538 59.868-52.005 95.682-10.531 11.609-22.196 23.126-34.586 34.075-7.055 6.237-14.342 12.288-21.787 18.069-29.381 22.828-61.142 41.362-90.3 50.072-28.647-8.551-59.775-26.583-88.729-48.845-19.91-15.327-38.787-32.644-55.1-50.267-.864-.939-1.72-1.859-2.556-2.788-32.634-35.906-54.338-72.686-52.293-95.997 1.794-16.573 15.076-29.567 31.696-30.878 111.325-8.774 222.64-8.774 333.965 0 16.619 1.31 29.901 14.304 31.695 30.877z" fill="#d8572c" data-original="#e7ecf6" class=""/><g><path d="m382.792 205.843c-56.829 64.348-116.632 125.695-179.438 184.066-7.603-2.9-15.327-6.385-23.089-10.373-17.818-9.156-35.841-20.913-53.102-34.187-19.91-15.327-38.787-32.644-55.1-50.267-.864-.939-1.72-1.859-2.556-2.788-10.15-11.172-19.25-22.428-26.899-33.331-2.426-3.467-4.713-6.897-6.841-10.28-2.175-3.458-4.183-6.86-6.005-10.196 61.543-67.017 126.449-130.668 194.711-190.964 7.343-6.479 18.237-6.98 26.119-1.162 51.15 37.765 95.607 82.222 133.372 133.372 5.818 7.882 5.316 18.767-1.172 26.11z" fill="#47c1bf" data-original="#78c2a4" class=""/><path d="m336.058 219.896c.502.511 1.013.985 1.543 1.45-26.723 29.297-54.226 58.093-82.083 85.95-24.455 24.455-49.644 48.631-75.251 72.24-17.818-9.156-35.841-20.913-53.102-34.187-3.309-2.547-6.581-5.149-9.825-7.799-8.802-7.185-17.344-14.723-25.487-22.447-6.915-6.562-13.533-13.273-19.789-20.021-.864-.939-1.72-1.859-2.556-2.788-10.15-11.172-19.25-22.428-26.899-33.331 26.193-28.675 53.12-56.866 80.419-84.165 27.857-27.857 56.652-55.351 85.94-82.074.474.521.948 1.041 1.45 1.543 13.803 13.803 36.176 13.803 49.969 0 2.017-2.017 3.737-4.229 5.168-6.562 27.94 23.349 53.715 49.124 77.055 77.064-2.333 1.431-4.536 3.142-6.553 5.159-13.802 13.802-13.802 36.175.001 49.968z" fill="#407c7b" data-original="#95d6a4" class=""/><g fill="#b3e59f"><ellipse cx="189.272" cy="241.048" rx="73.993" ry="66.794" transform="matrix(.707 -.707 .707 .707 -115.01 204.437)" fill="#47c1bf" data-original="#b3e59f" class=""/><g><path d="m121.95 334.195c-1.385 1.394-2.946 2.51-4.61 3.355-8.802-7.185-17.344-14.723-25.487-22.447.874-2.463 2.296-4.768 4.266-6.739 7.138-7.129 18.701-7.129 25.83 0 7.14 7.14 7.14 18.702.001 25.831z" fill="#000000" data-original="#000000" class=""/><circle cx="269.507" cy="160.813" r="18.264" fill="#000000" data-original="#000000" class=""/></g></g></g></g><g><path d="m508.747 154.391-1.005-5.251c-1.138-5.949-4.73-11.211-9.855-14.439-5.124-3.228-11.422-4.193-17.277-2.65l-22.575 5.946c-11.107 2.925-18.117 14.054-15.958 25.337l.405 2.111c1.991 10.408 11.186 17.814 21.552 17.814.87 0 1.749-.052 2.632-.16l23.175-2.808c6.012-.729 11.508-3.952 15.079-8.843s4.966-11.109 3.827-17.057zm-15.943 8.212c-1.146 1.569-2.839 2.562-4.768 2.796l-23.175 2.808c-3.602.434-6.964-2.015-7.647-5.582 0-.001 0-.001 0-.002l-.405-2.112c-.683-3.567 1.534-7.086 5.046-8.011l22.575-5.946c.593-.156 1.192-.233 1.787-.233 1.288 0 2.551.363 3.676 1.071 1.644 1.036 2.751 2.657 3.116 4.566l1.005 5.251c.366 1.91-.064 3.825-1.21 5.394z" fill="#000000" data-original="#000000" class=""/><path d="m461.947 93.502c4.842-3.637 7.99-9.176 8.637-15.197.646-6.021-1.253-12.104-5.213-16.686l-3.497-4.046c-3.96-4.582-9.702-7.343-15.754-7.576-6.056-.241-11.989 2.079-16.289 6.343l-16.577 16.437c-8.156 8.087-8.662 21.229-1.151 29.921l1.407 1.628-.001-.001c4.307 4.984 10.443 7.571 16.627 7.571 4.6 0 9.227-1.432 13.143-4.374zm-37.087 1.015c-.001 0-.001 0 0 0l-1.407-1.628c-2.375-2.748-2.215-6.904.364-9.461l16.577-16.437c1.314-1.303 3.036-2.011 4.874-2.011.092 0 .184.002.276.005 1.942.075 3.711.926 4.981 2.396l3.496 4.046c1.271 1.47 1.856 3.344 1.648 5.276-.207 1.932-1.177 3.638-2.73 4.805l-18.667 14.02c-2.905 2.181-7.038 1.737-9.412-1.011z" fill="#000000" data-original="#000000" class=""/><path d="m355.829 65.174 2.033.706c2.358.819 4.771 1.209 7.151 1.209 8.569 0 16.703-5.058 20.228-13.327l9.156-21.474c2.375-5.571 2.332-11.943-.12-17.481-2.451-5.538-7.137-9.854-12.858-11.843l-5.05-1.755c-5.719-1.988-12.073-1.509-17.431 1.314-5.357 2.824-9.344 7.795-10.937 13.639l-6.137 22.523c-3.018 11.082 3.114 22.717 13.965 26.489zm.509-22.545 6.137-22.523c.511-1.875 1.739-3.407 3.458-4.312 1.016-.536 2.115-.806 3.223-.806.767 0 1.538.129 2.289.391l5.05 1.755c1.835.638 3.279 1.967 4.065 3.744.787 1.777.8 3.74.038 5.528l-9.156 21.474c-1.425 3.341-5.225 5.025-8.657 3.832 0 0-.001 0-.002-.001l-2.031-.705c-3.43-1.194-5.369-4.872-4.414-8.377z" fill="#000000" data-original="#000000" class=""/><path d="m383.454 157.946c-2.386-.186-4.776-.368-7.165-.55-35.079-44.186-75.775-83.502-121.241-117.066-10.652-7.868-25.598-7.207-35.542 1.572-21.843 19.296-43.542 39.119-64.496 58.92-3.01 2.845-3.145 7.592-.3 10.603s7.592 3.145 10.603.3c20.832-19.686 42.406-39.396 64.123-58.579 4.677-4.127 11.7-4.442 16.702-.749 50.31 37.14 94.651 81.48 131.792 131.792 3.691 4.999 3.374 12.016-.759 16.689-55.335 62.657-114.354 123.294-175.467 180.308-2.733-1.118-5.501-2.32-8.296-3.602 22.931-21.323 45.573-43.144 67.414-64.985 27.922-27.922 55.619-56.924 82.321-86.199 1.358-1.489 2.06-3.461 1.947-5.473s-1.029-3.894-2.545-5.222c-.441-.387-.801-.725-1.185-1.115-5.258-5.254-8.154-12.242-8.154-19.676 0-7.435 2.896-14.426 8.155-19.685 1.54-1.54 3.279-2.908 5.171-4.069 1.857-1.14 3.127-3.03 3.479-5.181.352-2.15-.249-4.348-1.646-6.02-23.549-28.192-49.792-54.438-78.001-78.011-1.672-1.398-3.87-1.998-6.02-1.647-2.15.352-4.042 1.622-5.182 3.479-1.162 1.895-2.535 3.638-4.081 5.184-5.254 5.258-12.242 8.154-19.676 8.154-7.435 0-14.425-2.896-19.685-8.155-.419-.419-.813-.855-1.209-1.29-1.34-1.472-3.21-2.35-5.198-2.442-1.987-.095-3.931.61-5.401 1.952-29.376 26.803-58.374 54.496-86.188 82.311-24.993 24.992-49.917 50.997-74.206 77.391-.477-.738-.947-1.472-1.402-2.196-1.092-1.735-2.134-3.451-3.125-5.138 33.733-36.578 68.957-72.647 104.792-107.265 2.979-2.878 3.061-7.626.183-10.605s-7.625-3.062-10.605-.183c-11.253 10.871-22.437 21.898-33.546 33.024-17.112.925-34.417 2.071-51.492 3.423-20.157 1.589-36.376 17.375-38.566 37.538-9.782 90.221-9.782 181.717 0 271.949 2.19 20.162 18.409 35.948 38.566 37.537 55.627 4.389 111.673 6.585 167.672 6.584 44.46 0 88.894-1.385 133.038-4.156 4.134-.26 7.275-3.821 7.016-7.955-.259-4.135-3.827-7.261-7.955-7.016-99.042 6.217-199.502 5.406-298.591-2.411-12.93-1.019-23.339-11.13-24.811-24.062 0-.001 0-.001 0-.002-1.98-22.616 23.128-63.657 63.968-104.557 2.927-2.931 2.923-7.68-.008-10.606-2.931-2.927-7.68-2.923-10.606.008-26.16 26.199-45.722 51.818-57.097 74.121-4.669-62.212-4.666-124.838.009-187.045.713 1.388 1.446 2.787 2.225 4.207 1.858 3.404 3.957 6.968 6.239 10.596 2.145 3.41 4.515 6.972 7.049 10.594 7.791 11.103 17.039 22.564 27.466 34.043.672.747 1.356 1.488 2.047 2.237l.578.626c16.817 18.168 36.191 35.843 56.032 51.117 18.305 14.077 36.556 25.823 54.246 34.913 8.097 4.16 16.119 7.763 23.832 10.706 4.366 1.673 8.763 3.175 13.07 4.466.702.21 1.427.315 2.152.315.723 0 1.446-.104 2.146-.314 28.358-8.47 60.432-26.221 92.753-51.334 7.485-5.813 14.939-11.995 22.153-18.373 12.502-11.049 24.337-22.708 35.176-34.658 19.084-21.051 33.558-41.22 42.709-59.147 4.68 62.206 4.683 124.832.01 187.044-11.375-22.301-30.938-47.919-57.096-74.116-2.927-2.932-7.676-2.935-10.606-.008-2.931 2.927-2.935 7.675-.008 10.606 40.811 40.871 65.912 81.882 63.971 104.509-1.442 12.957-11.864 23.091-24.837 24.114-1.462.119-2.925.228-4.388.336-4.131.307-7.231 3.904-6.924 8.035.292 3.942 3.582 6.945 7.472 6.945.186 0 .374-.007.563-.021 1.497-.111 2.994-.223 4.474-.343 20.169-1.589 36.389-17.378 38.567-37.538 9.792-90.23 9.792-181.727 0-271.945-2.179-20.159-18.399-35.948-38.575-37.538zm-333.95 14.954c11.448-.907 22.998-1.712 34.525-2.43-17.777 18.111-35.289 36.476-52.431 54.986-5.171-11.321-7.554-21.042-6.914-28.458 1.458-12.951 11.875-23.078 24.82-24.098zm67.981 155.037c-5.471-4.594-10.857-9.347-16.116-14.209.018-.018.033-.039.051-.057 4.201-4.195 11.032-4.198 15.228-.003 2.036 2.036 3.157 4.74 3.157 7.615-.001 2.442-.817 4.754-2.32 6.654zm11.66 9.449c3.665-4.554 5.659-10.173 5.659-16.102 0-6.882-2.682-13.353-7.551-18.222-10.039-10.04-26.383-10.042-36.437 0-.1.1-.192.205-.291.307-4.455-4.405-8.782-8.87-12.944-13.367l-.574-.623c-.65-.704-1.293-1.401-1.948-2.127-8.497-9.354-16.139-18.653-22.795-27.713 24.871-27.098 50.433-53.803 76.067-79.437 26.039-26.038 53.118-51.968 80.576-77.156 7.524 5.948 16.764 9.174 26.5 9.174 11.442 0 22.198-4.457 30.285-12.549.347-.346.687-.699 1.022-1.058 23.283 19.979 45.129 41.828 65.09 65.098-.356.332-.706.67-1.049 1.014-8.092 8.092-12.549 18.85-12.549 30.292 0 9.75 3.236 19.001 9.17 26.498-25.097 27.366-51.029 54.447-77.161 80.58-23.023 23.022-46.941 46.02-71.149 68.431-15.444-8.312-31.34-18.725-47.325-31.017-.868-.67-1.732-1.347-2.596-2.023zm227.866-50.447c-10.468 11.541-21.907 22.81-33.999 33.495-6.978 6.169-14.184 12.146-21.421 17.766-28.717 22.312-56.999 38.453-82.216 46.994 58.816-55.307 115.632-113.914 169.034-174.383 8.786-9.937 9.453-24.881 1.586-35.533-.209-.284-.426-.562-.636-.845 9.523 3.453 16.58 12.095 17.744 22.592 1.658 19.553-17.526 53.992-50.092 89.914z" fill="#000000" data-original="#000000" class=""/><path d="m241.805 293.581c15.291-15.291 24.294-35.09 25.35-55.75 1.071-20.95-6.124-40.272-20.259-54.408-28.967-28.967-78.384-26.683-110.158 5.091-15.291 15.291-24.293 35.09-25.35 55.75-1.071 20.95 6.124 40.272 20.26 54.408 13.606 13.606 31.719 20.316 50.401 20.316 21.091 0 42.907-8.558 59.756-25.407zm-115.436-48.551c.867-16.945 8.316-33.25 20.976-45.91 25.925-25.925 65.826-28.209 88.945-5.091 11.096 11.096 16.737 26.379 15.885 43.035-.866 16.945-8.316 33.249-20.976 45.91-13.938 13.938-31.909 21.042-49.145 21.041-14.826-.001-29.109-5.26-39.799-15.95-11.096-11.095-16.738-26.379-15.886-43.035z" fill="#000000" data-original="#000000" class=""/><path d="m269.507 186.565c6.598 0 13.196-2.511 18.219-7.534 10.044-10.045 10.044-26.391 0-36.437-10.046-10.044-26.391-10.044-36.437 0-10.046 10.045-10.046 26.391 0 36.437 5.022 5.023 11.62 7.534 18.218 7.534zm-7.612-33.363c2.099-2.099 4.855-3.148 7.612-3.148 2.756 0 5.513 1.049 7.611 3.147 4.197 4.197 4.197 11.026 0 15.224-4.197 4.197-11.026 4.197-15.224 0s-4.196-11.027.001-15.223z" fill="#000000" data-original="#000000" class=""/><path d="m209.544 242.099c2.751 3.646 2.515 10.715-3.343 16.638-5.619 5.681-7.815 7.384-14.461 9.397-3.595 1.089-6.037 4.594-5.482 8.309.577 3.863 3.849 6.439 7.424 6.439.713 0 1.438-.103 2.156-.318 7.129-2.137 11.344-4.517 15.547-8.095l1.492 1.492c1.464 1.464 3.384 2.197 5.303 2.197 1.862 0 3.723-.689 5.169-2.066 3.062-2.916 2.896-7.974-.093-10.964l-1.695-1.695c6.889-10.818 5.61-22.876-.047-30.371-6.89-9.131-18.822-10.925-30.398-4.57-6.74 3.701-14.357 7.641-19.742 8.799-1.616.346-2.695-.617-3.316-1.487-1.254-1.756-1.837-4.889.289-8.417 2.589-4.297 5.752-6.784 8.308-8.203 2.715-1.508 4.274-4.482 3.83-7.556l-.033-.231c-.733-5.081-6.301-7.873-10.813-5.424-1.102.598-2.252 1.297-3.422 2.113l-1.031-1.031c-2.903-2.904-7.673-3.198-10.663-.383-3.094 2.914-3.149 7.784-.166 10.768l1.553 1.553c-.137.218-.277.43-.412.654-4.84 8.034-4.701 17.799.354 24.876 4.373 6.122 11.527 8.967 18.677 7.433 5.863-1.261 12.76-4.25 23.808-10.315 2.869-1.574 8.139-3.609 11.207.458z" fill="#000000" data-original="#000000" class=""/></g></g></g></svg>
